PathFileType	4	(X/Y/Z)	C:/Users/opensim2020/Desktop/walking_exp_matlab/subject01_walking05_straight_01.trc																																																																																																																															
DataRate	CameraRate	NumFrames	NumMarkers	Units	OrigDataRate	OrigDataStartFrame	OrigNumFrames																																																																																																																											
100	100	8	43	mm	100	934	239																																																																																																																											
Frame#	Time	LFHD			RFHD			LBHD			RBHD			C7			T10			CLAV			STRN			RBAK			LSHO			LUPA			LELB			LFRM			LWRA			LWRB			LFIN			RSHO			RUPA			RELB			RFRM			RWRA			RWRB			RFIN			LASI			RASI			LPSI			RPSI			LTHI			LKNE			LTIB			LANK			LHEE			LTOE			RTHI			RKNE			RTIB			RANK			RHEE			RTOE			*39			*40			*41			*42		
		X1	Y1	Z1	X2	Y2	Z2	X3	Y3	Z3	X4	Y4	Z4	X5	Y5	Z5	X6	Y6	Z6	X7	Y7	Z7	X8	Y8	Z8	X9	Y9	Z9	X10	Y10	Z10	X11	Y11	Z11	X12	Y12	Z12	X13	Y13	Z13	X14	Y14	Z14	X15	Y15	Z15	X16	Y16	Z16	X17	Y17	Z17	X18	Y18	Z18	X19	Y19	Z19	X20	Y20	Z20	X21	Y21	Z21	X22	Y22	Z22	X23	Y23	Z23	X24	Y24	Z24	X25	Y25	Z25	X26	Y26	Z26	X27	Y27	Z27	X28	Y28	Z28	X29	Y29	Z29	X30	Y30	Z30	X31	Y31	Z31	X32	Y32	Z32	X33	Y33	Z33	X34	Y34	Z34	X35	Y35	Z35	X36	Y36	Z36	X37	Y37	Z37	X38	Y38	Z38	X39	Y39	Z39	X40	Y40	Z40	X41	Y41	Z41	X42	Y42	Z42	X43	Y43	Z43
																																																																																																																																		
180	1.79	501.28494	1684.49829	-1119.64197	502.54547	1693.92432	-1004.31592	399.67508	1611.39819	-1121.18506	397.70151	1619.47693	-1000.00189	386.80524	1438.7334	-1070.55298	348.98798	1149.17737	-1046.97327	532.92737	1374.25244	-1061.1908	575.64056	1218.34656	-1061.25122	333.18768	1249.1123	-984.06165	478.05396	1398.50098	-1224.84985	482.14096	1215.19409	-1312.53638	506.97806	1065.18652	-1320.91064	589.59589	983.80383	-1343.70117	710.92023	917.55298	-1323.99463	664.70038	887.75671	-1347.87988	738.42365	848.87189	-1358.40796	466.4346	1407.71912	-912.5152	393.74371	1215.29468	-807.81921	382.87445	1091.41394	-805.48511	393.67059	972.16803	-772.56061	456.12122	844.33533	-789.28949	413.13669	852.74066	-750.12836	437.63742	769.66772	-752.63544	515.54022	937.39752	-1150.86768	519.79242	947.24109	-934.06683	331.04068	951.3244	-1090.5918	337.09854	952.71899	-945.65582	452.19406	605.49371	-1192.42383	425.70529	472.22681	-1172.50964	356.12418	294.38211	-1173.52344	318.28912	78.12883	-1110.62036	274.02426	54.60807	-1055.31104	466.67844	36.38837	-1111.25208	561.4422	625.82037	-865.73413	610.55103	474.30518	-891.8894	561.1781	304.7804	-891.6756	547.92474	99.08605	-943.53906	509.01355	59.96715	-1003.37354	681.65015	57.90735	-923.98969	483.70044	1723.21033	-1029.27759	1973.00769	1023.85632	-3102.1311	2012.48315	1021.90875	-3140.68945	NaN	NaN	NaN
181	1.8	509.91	1684.07751	-1118.74731	510.9827	1693.22937	-1003.32947	408.14374	1611.01648	-1120.78833	406.36542	1618.65845	-999.237	395.66086	1438.18201	-1070.23889	356.90527	1148.64197	-1046.66882	541.78448	1373.67578	-1060.81372	584.44617	1217.68738	-1061.1958	341.94415	1248.45605	-984.10406	487.16727	1398.3009	-1224.35608	491.73383	1215.38208	-1312.62048	517.38367	1065.52625	-1321.63916	601.61444	985.57904	-1344.30188	724.20953	921.87769	-1324.50439	678.58655	891.15228	-1348.56006	753.12122	853.82574	-1359.0144	475.10571	1406.922	-912.05646	401.54129	1214.54199	-807.94275	390.06268	1090.84021	-805.72113	399.94598	971.54211	-772.78284	461.97757	843.39856	-789.13812	418.83893	852.01733	-750.30951	442.60309	768.72504	-752.72571	523.90942	936.95026	-1151.20654	529.04449	946.5473	-934.23212	339.53592	950.91656	-1090.10376	345.90549	952.44043	-945.20416	457.27115	605.40845	-1192.56311	429.07825	472.39752	-1172.95813	357.98773	295.1127	-1173.53674	318.7298	78.96503	-1110.51941	274.37634	55.77663	-1054.99854	466.78217	36.28884	-1111.3291	568.20776	624.0918	-866.14459	618.82495	473.68378	-893.21198	577.55225	302.21707	-891.55652	576.11786	95.7179	-942.52448	538.43787	54.43842	-1001.69751	712.03149	60.70648	-923.7923	492.15198	1722.37354	-1028.7605	1973.0907	1023.85925	-3102.02466	2012.56909	1022.0401	-3140.50635	NaN	NaN	NaN
182	1.81	518.57532	1683.5094	-1117.67798	519.60339	1692.50684	-1002.24841	416.84512	1610.36792	-1120.17249	414.92007	1617.77344	-998.45978	404.46692	1437.51526	-1069.703	365.65265	1147.97339	-1046.09753	550.61768	1372.97046	-1060.25049	593.21893	1216.99805	-1061.02759	350.70813	1247.6748	-984.00146	496.18524	1398.03967	-1223.88867	501.28802	1215.5387	-1312.70056	527.73981	1065.75903	-1322.35474	613.3125	987.19415	-1344.86743	737.18872	925.93799	-1324.8606	692.15839	894.31909	-1348.91382	767.35382	858.46594	-1359.36877	483.89349	1406.03687	-911.57819	409.38782	1213.87854	-807.88452	397.35074	1090.19006	-805.86182	406.56821	970.86292	-772.92371	467.52542	842.2323	-789.13257	424.75723	851.21204	-750.38611	447.77826	767.70941	-752.7619	532.21368	936.56958	-1151.39661	538.45215	945.7417	-934.38312	348.1528	950.42627	-1089.46667	355.07465	951.5603	-944.75409	462.37393	605.33197	-1192.64587	432.728	472.51532	-1173.0083	359.95169	295.90323	-1173.65479	319.0433	79.6996	-1110.48706	274.63263	57.09882	-1054.97156	466.92657	36.17536	-1111.37854	574.1059	621.86346	-866.80511	627.07886	472.83582	-894.56476	593.73004	300.38983	-891.48181	603.14453	92.75696	-941.12323	567.68652	49.89824	-999.81403	741.39294	65.01247	-923.43085	500.55743	1721.71204	-1027.72217	1973.06299	1023.78485	-3101.82788	2012.5791	1022.0271	-3140.5437	NaN	NaN	NaN
183	1.82	527.2218	1682.89368	-1116.53528	528.20923	1691.71643	-1001.12842	425.60834	1609.65588	-1119.224	423.58066	1616.93005	-997.59991	413.28098	1436.81763	-1069.13086	374.52377	1147.27271	-1045.35059	559.48401	1372.25842	-1059.60852	602.07446	1216.31506	-1060.73816	359.47952	1246.797	-983.72314	505.26233	1397.68762	-1223.14404	510.89362	1215.64221	-1312.73267	537.9845	1065.88806	-1322.87134	625.08795	988.84271	-1345.271	749.90765	929.82837	-1325.07263	705.70801	897.22247	-1348.72131	781.33582	862.99884	-1359.68835	492.50397	1405.13013	-910.89587	417.19626	1213.11304	-807.75897	404.70862	1089.46777	-805.92981	413.25732	970.15686	-772.99518	473.97137	841.48279	-788.82922	430.7399	850.48822	-750.37421	453.52463	766.82983	-752.70087	540.73071	936.02704	-1151.72925	548.0097	944.85864	-934.48663	356.92395	949.91724	-1088.67871	364.5116	950.73108	-944.13861	467.51352	605.35828	-1192.95422	436.38824	472.68427	-1173.39905	362.04138	296.71893	-1173.72485	319.48776	80.72185	-1110.47742	275.02936	58.31464	-1054.85266	466.80264	36.03532	-1111.51599	580.22601	619.70575	-867.2536	635.1936	471.87015	-895.89697	609.46204	298.64978	-891.48358	629.30646	91.25016	-939.80243	595.69104	46.40987	-997.88739	769.38403	69.68982	-923.10345	509.26392	1720.89709	-1026.59302	1973.16687	1023.46124	-3101.91528	2012.57764	1022.00861	-3140.63525	NaN	NaN	NaN
184	1.83	535.97766	1682.24084	-1115.43628	536.82721	1690.81055	-999.94958	434.3855	1608.96619	-1118.2804	432.1853	1616.05481	-996.54346	422.05069	1436.01855	-1068.49377	383.45016	1146.41663	-1044.53735	568.31836	1371.48669	-1058.82288	610.90704	1215.60657	-1060.32336	368.33475	1245.80811	-983.27368	514.24561	1397.27576	-1222.39771	520.5415	1215.64673	-1312.5968	548.17432	1066.026	-1323.38403	636.44373	990.15515	-1345.54919	762.31213	933.43353	-1325.15955	718.71869	900.02997	-1348.84912	794.92188	867.24194	-1359.8291	501.1156	1404.18787	-910.11932	424.97318	1212.27881	-807.54578	412.12805	1088.729	-805.87219	420.04651	969.35022	-772.93488	479.79221	840.1449	-788.7785	436.936	849.52264	-750.29449	459.49054	765.90948	-752.45813	549.41327	935.63684	-1151.81921	557.81561	943.93793	-934.56897	365.81583	949.43237	-1087.77649	374.15112	949.88983	-943.41278	472.84021	605.35138	-1193.198	440.53433	472.81705	-1173.39392	364.38361	297.56223	-1173.84888	319.95215	81.72884	-1110.5387	275.492	59.80205	-1054.91406	467.02499	35.9441	-1111.65027	586.42719	617.63245	-867.3103	643.29706	470.87949	-897.19641	624.70544	297.44101	-891.59192	654.60278	90.52396	-938.65027	621.99615	44.03321	-996.65686	795.99585	74.96704	-922.82935	517.87958	1720.05945	-1025.28699	1973.13562	1023.5321	-3101.96924	2012.57568	1022.02582	-3140.59741	NaN	NaN	NaN
185	1.84	544.75946	1681.54871	-1114.23352	545.51569	1689.93787	-998.59711	443.20084	1608.25256	-1117.19604	440.88181	1615.13623	-995.48938	430.8302	1435.19275	-1067.72839	393.30951	1145.52734	-1043.60352	577.13342	1370.72839	-1057.92566	619.81287	1214.85364	-1059.83252	377.29523	1244.73242	-982.7193	523.20135	1396.83716	-1221.56604	530.12219	1215.62854	-1312.41663	558.29901	1066.05066	-1323.69226	647.89478	991.49573	-1345.61938	774.44861	936.79535	-1325.12207	731.47272	902.58374	-1348.75891	808.16553	871.15857	-1359.84631	509.75589	1403.2041	-909.27295	432.81821	1211.3335	-807.25482	419.70526	1087.86658	-805.7373	426.98822	968.48877	-772.76105	486.77393	839.37653	-788.117	443.35135	848.64471	-750.05334	465.62433	764.9295	-752.17517	558.23431	935.19543	-1151.8175	567.71863	942.80841	-934.69452	374.81125	948.84863	-1086.72229	383.8356	948.99005	-942.50525	478.29199	605.25299	-1193.4635	444.89014	472.91824	-1173.55969	366.93616	298.43637	-1173.90747	320.47021	82.70563	-1110.6051	275.90051	61.31604	-1054.82056	467.15106	35.92211	-1111.73499	592.87231	615.55231	-867.13873	651.55792	469.96481	-898.18488	639.88715	296.45486	-891.73505	678.52869	90.27217	-937.73175	647.19745	42.65077	-995.37909	820.74304	80.39503	-923.11615	526.58319	1719.2356	-1023.88354	1973.13379	1023.35303	-3101.99487	2012.56116	1022.0545	-3140.61255	NaN	NaN	NaN
186	1.85	553.65051	1680.80286	-1112.76062	554.29846	1689.0448	-997.19348	452.06027	1607.47839	-1115.92505	449.54144	1614.25928	-994.43323	439.59753	1434.31604	-1066.81836	402.58817	1144.42432	-1042.62915	586.02356	1369.9729	-1056.95227	628.79901	1214.18396	-1059.22717	386.254	1243.55786	-982.07068	532.17584	1396.36462	-1220.57446	539.68506	1215.56299	-1312.16064	568.32452	1066.06604	-1323.7644	658.99451	992.60291	-1345.64819	786.30579	939.86719	-1324.9967	743.91205	904.97327	-1348.68225	821.04633	874.65698	-1359.58215	518.37683	1402.21143	-908.28406	440.71213	1210.37061	-806.86627	427.3475	1086.95715	-805.39868	434.18417	967.55322	-772.50006	493.17545	837.76495	-788.0968	450.00955	847.62024	-749.79059	472.28586	763.90863	-751.71112	567.17236	934.87695	-1151.78088	577.68317	941.60529	-934.81366	383.95697	948.28363	-1085.67847	393.64157	947.96094	-941.78906	484.00717	605.19568	-1193.73718	449.41809	472.98218	-1173.92261	369.75485	299.33368	-1173.94312	321.13144	83.97932	-1110.70837	276.39398	63.01463	-1054.81665	467.43405	36.13192	-1111.97949	599.67719	613.56458	-866.76642	659.82654	469.02521	-898.88965	654.51923	295.37808	-891.68701	700.43982	90.61261	-937.42737	671.67621	41.15091	-994.26471	843.38776	85.44831	-923.99377	535.38446	1718.35425	-1022.59467	1973.16321	1023.28308	-3101.7688	2012.51306	1021.98029	-3140.62134	NaN	NaN	NaN
187	1.86	562.62396	1680.07935	-1111.38281	563.09192	1688.07556	-995.60779	461.16064	1606.80212	-1114.40808	458.28555	1613.45813	-993.12762	448.32492	1433.36292	-1065.80469	410.72675	1143.34998	-1041.7168	594.86658	1369.22461	-1055.92981	637.90302	1213.48669	-1058.49634	395.32861	1242.28894	-981.31598	541.10449	1395.87781	-1219.59436	549.27399	1215.40796	-1311.66638	578.26257	1066.06555	-1323.86511	669.92212	993.56506	-1345.49133	797.87891	942.6485	-1324.80786	755.9975	907.09705	-1348.62085	833.5238	877.90942	-1359.5769	526.89276	1401.15686	-907.29248	448.56564	1209.34888	-806.35889	435.13904	1085.95374	-805.06165	441.54361	966.51642	-772.20111	500.29834	836.61145	-787.51013	457.22455	846.57843	-749.41187	479.12418	762.85999	-751.26398	575.8385	934.03912	-1152.07471	587.89221	940.2644	-934.92902	393.26239	947.67303	-1084.65332	403.56329	947.03217	-940.82849	489.97681	605.0802	-1194.02332	454.30234	473.02142	-1174.10303	372.65536	300.30908	-1174.09583	321.74594	85.13757	-1110.73438	276.8244	64.68604	-1054.90222	467.34976	35.9233	-1112.1095	607.26044	611.86774	-866.26984	668.31244	467.978	-899.41754	668.72736	294.49527	-891.69702	721.11426	91.20231	-937.34698	692.85693	41.05971	-994.42163	864.36414	90.40695	-925.09045	544.21912	1717.46143	-1021.06848	1973.11743	1023.66327	-3101.96167	2012.52148	1022.03772	-3140.55542	NaN	NaN	NaN
